<svg width="480" height="300" viewBox="0 0 480 300" fill="none" xmlns="http://www.w3.org/2000/svg">
<path d="M24 0H456C469.296 0 480 10.704 480 24V276C480 289.296 469.296 300 456 300H24C10.704 300 0 289.296 0 276V24C0 10.704 10.704 0 24 0Z" fill="#913D88"/>
<path d="M75.242 232.84C75.242 231.017 75.069 229.735 74.724 228.992C74.385 228.243 73.813 227.869 73.005 227.869C72.198 227.869 71.622 228.243 71.276 228.992C70.931 229.734 70.758 231.017 70.758 232.84C70.758 234.682 70.931 235.981 71.276 236.736C71.621 237.491 72.197 237.869 73.005 237.869C73.806 237.869 74.379 237.491 74.724 236.736C75.07 235.981 75.242 234.682 75.242 232.84ZM79.002 232.869C79.002 235.284 78.481 237.15 77.439 238.465C76.397 239.774 74.919 240.428 73.005 240.428C71.084 240.428 69.603 239.774 68.562 238.465C67.52 237.15 66.999 235.285 66.999 232.869C66.999 230.447 67.52 228.582 68.562 227.273C69.604 225.958 71.085 225.3 73.005 225.3C74.919 225.3 76.397 225.958 77.439 227.273C78.481 228.582 79.002 230.447 79.002 232.869Z" fill="#662B5F"/>
<path d="M82.068 225.564H91.414V228.328H85.066V230.584C85.352 230.506 85.639 230.447 85.925 230.408C86.218 230.362 86.521 230.34 86.833 230.34C88.61 230.34 89.994 230.786 90.983 231.678C91.973 232.563 92.467 233.8 92.467 235.389C92.467 236.965 91.927 238.198 90.846 239.09C89.772 239.982 88.278 240.428 86.364 240.428C85.537 240.428 84.717 240.347 83.903 240.184C83.096 240.028 82.292 239.787 81.491 239.461V236.502C82.285 236.958 83.037 237.3 83.747 237.527C84.463 237.755 85.137 237.869 85.768 237.869C86.679 237.869 87.396 237.648 87.916 237.205C88.443 236.756 88.707 236.15 88.707 235.389C88.707 234.621 88.443 234.015 87.916 233.573C87.395 233.13 86.679 232.909 85.768 232.909C85.228 232.909 84.651 232.981 84.039 233.124C83.427 233.261 82.769 233.476 82.066 233.769V225.564H82.068Z" fill="#662B5F"/>
<path d="M105.945 225.564H108.113L102.967 242H100.809L105.945 225.564Z" fill="#662B5F"/>
<path d="M117.41 237.547H120.73V228.123L117.322 228.826V226.267L120.711 225.564H124.285V237.546H127.605V240.144H117.41V237.547Z" fill="#662B5F"/>
<path d="M138.289 232.283C139.272 232.537 140.018 232.98 140.525 233.611C141.039 234.236 141.296 235.034 141.296 236.004C141.296 237.449 140.743 238.55 139.636 239.305C138.529 240.054 136.915 240.428 134.792 240.428C134.043 240.428 133.291 240.366 132.536 240.242C131.787 240.125 131.045 239.946 130.309 239.705V236.805C131.012 237.157 131.709 237.424 132.399 237.606C133.096 237.782 133.779 237.87 134.45 237.87C135.446 237.87 136.208 237.698 136.735 237.352C137.269 237.007 137.536 236.512 137.536 235.868C137.536 235.204 137.263 234.703 136.716 234.364C136.176 234.019 135.375 233.846 134.314 233.846H132.81V231.424H134.392C135.336 231.424 136.039 231.278 136.501 230.985C136.963 230.686 137.194 230.233 137.194 229.628C137.194 229.068 136.969 228.635 136.52 228.329C136.071 228.023 135.436 227.87 134.616 227.87C134.011 227.87 133.399 227.938 132.78 228.075C132.162 228.212 131.546 228.414 130.934 228.68V225.926C131.676 225.718 132.412 225.561 133.141 225.457C133.87 225.353 134.586 225.301 135.289 225.301C137.184 225.301 138.6 225.614 139.537 226.239C140.481 226.858 140.953 227.792 140.953 229.042C140.953 229.895 140.728 230.595 140.279 231.142C139.832 231.681 139.168 232.062 138.289 232.283Z" fill="#662B5F"/>
<path d="M150.916 232.967H157.049V235.809H150.916V232.967Z" fill="#662B5F"/>
<path d="M174.305 232.84C174.305 231.017 174.132 229.735 173.787 228.992C173.448 228.243 172.876 227.869 172.068 227.869C171.261 227.869 170.685 228.243 170.339 228.992C169.994 229.734 169.821 231.017 169.821 232.84C169.821 234.682 169.994 235.981 170.339 236.736C170.684 237.491 171.26 237.869 172.068 237.869C172.869 237.869 173.442 237.491 173.787 236.736C174.132 235.981 174.305 234.682 174.305 232.84ZM178.064 232.869C178.064 235.284 177.543 237.15 176.501 238.465C175.459 239.774 173.981 240.428 172.067 240.428C170.146 240.428 168.665 239.774 167.624 238.465C166.582 237.15 166.061 235.285 166.061 232.869C166.061 230.447 166.582 228.582 167.624 227.273C168.666 225.958 170.147 225.3 172.067 225.3C173.981 225.3 175.459 225.958 176.501 227.273C177.544 228.582 178.064 230.447 178.064 232.869Z" fill="#662B5F"/>
<path d="M181.131 225.564H190.477V228.328H184.129V230.584C184.415 230.506 184.702 230.447 184.988 230.408C185.281 230.362 185.584 230.34 185.896 230.34C187.673 230.34 189.057 230.786 190.046 231.678C191.036 232.563 191.53 233.8 191.53 235.389C191.53 236.965 190.99 238.198 189.909 239.09C188.835 239.982 187.341 240.428 185.427 240.428C184.6 240.428 183.78 240.347 182.966 240.184C182.159 240.028 181.355 239.787 180.554 239.461V236.502C181.348 236.958 182.1 237.3 182.81 237.527C183.526 237.755 184.2 237.869 184.831 237.869C185.742 237.869 186.459 237.648 186.979 237.205C187.506 236.756 187.77 236.15 187.77 235.389C187.77 234.621 187.506 234.015 186.979 233.573C186.458 233.13 185.742 232.909 184.831 232.909C184.291 232.909 183.714 232.981 183.102 233.124C182.49 233.261 181.832 233.476 181.129 233.769L181.131 225.564Z" fill="#662B5F"/>
<path d="M205.008 225.564H207.176L202.03 242H199.872L205.008 225.564Z" fill="#662B5F"/>
<path d="M216.473 237.547H219.793V228.123L216.385 228.826V226.267L219.774 225.564H223.348V237.546H226.668V240.144H216.473V237.547V237.547Z" fill="#662B5F"/>
<path d="M234.998 233.621C234.295 233.621 233.755 233.813 233.377 234.197C232.999 234.581 232.811 235.131 232.811 235.847C232.811 236.563 233 237.113 233.377 237.497C233.755 237.875 234.295 238.063 234.998 238.063C235.695 238.063 236.228 237.874 236.6 237.497C236.971 237.113 237.157 236.563 237.157 235.847C237.157 235.124 236.971 234.574 236.6 234.197C236.229 233.813 235.695 233.621 234.998 233.621ZM232.254 232.381C231.369 232.114 230.701 231.704 230.252 231.151C229.803 230.598 229.578 229.908 229.578 229.081C229.578 227.851 230.037 226.913 230.955 226.268C231.873 225.623 233.221 225.301 234.998 225.301C236.762 225.301 238.103 225.623 239.021 226.268C239.939 226.906 240.398 227.844 240.398 229.081C240.398 229.908 240.17 230.598 239.714 231.151C239.265 231.704 238.597 232.115 237.712 232.381C238.702 232.654 239.447 233.1 239.948 233.719C240.456 234.331 240.71 235.106 240.71 236.043C240.71 237.488 240.228 238.582 239.265 239.324C238.308 240.06 236.885 240.428 234.997 240.428C233.102 240.428 231.67 240.06 230.7 239.324C229.736 238.582 229.255 237.488 229.255 236.043C229.255 235.105 229.506 234.331 230.007 233.719C230.516 233.1 231.264 232.654 232.254 232.381ZM233.133 229.461C233.133 230.04 233.293 230.486 233.612 230.799C233.938 231.112 234.4 231.268 234.999 231.268C235.585 231.268 236.037 231.112 236.356 230.799C236.675 230.486 236.835 230.041 236.835 229.461C236.835 228.882 236.675 228.439 236.356 228.133C236.037 227.82 235.585 227.664 234.999 227.664C234.4 227.664 233.938 227.82 233.612 228.133C233.292 228.445 233.133 228.888 233.133 229.461Z" fill="#662B5F"/>
<path d="M33.577 154.989H47.129V157.894H36.738V164.149C37.239 163.978 37.741 163.853 38.242 163.773C38.743 163.682 39.245 163.636 39.746 163.636C42.594 163.636 44.85 164.416 46.514 165.977C48.177 167.538 49.009 169.651 49.009 172.317C49.009 175.063 48.155 177.199 46.446 178.726C44.737 180.241 42.327 180.999 39.217 180.999C38.146 180.999 37.052 180.908 35.936 180.726C34.831 180.544 33.686 180.27 32.501 179.906V176.437C33.526 176.995 34.586 177.411 35.68 177.685C36.774 177.958 37.93 178.095 39.149 178.095C41.12 178.095 42.681 177.577 43.832 176.54C44.983 175.503 45.558 174.096 45.558 172.319C45.558 170.542 44.983 169.135 43.832 168.098C42.681 167.061 41.12 166.543 39.149 166.543C38.226 166.543 37.303 166.646 36.38 166.851C35.469 167.056 34.534 167.375 33.577 167.808C33.577 167.807 33.577 154.989 33.577 154.989Z" fill="#662B5F"/>
<path d="M65.312 157.997L56.596 171.618H65.312V157.997ZM64.407 154.989H68.748V171.617H72.388V174.488H68.748V180.504H65.313V174.488H53.794V171.155L64.407 154.989Z" fill="#662B5F"/>
<path d="M78.147 154.989H91.699V157.894H81.309V164.149C81.81 163.978 82.312 163.853 82.813 163.773C83.314 163.682 83.816 163.636 84.317 163.636C87.165 163.636 89.421 164.416 91.085 165.977C92.748 167.538 93.58 169.651 93.58 172.317C93.58 175.063 92.726 177.199 91.017 178.726C89.308 180.241 86.898 180.999 83.788 180.999C82.717 180.999 81.623 180.908 80.507 180.726C79.402 180.544 78.257 180.27 77.072 179.906V176.437C78.097 176.995 79.157 177.411 80.251 177.685C81.345 177.958 82.501 178.095 83.72 178.095C85.691 178.095 87.252 177.577 88.403 176.54C89.554 175.503 90.129 174.096 90.129 172.319C90.129 170.542 89.554 169.135 88.403 168.098C87.252 167.061 85.691 166.543 83.72 166.543C82.797 166.543 81.874 166.646 80.951 166.851C80.04 167.056 79.105 167.375 78.148 167.808C78.147 167.807 78.147 154.989 78.147 154.989Z" fill="#662B5F"/>
<path d="M103.372 177.599H115.42V180.504H99.219V177.599C100.529 176.243 102.312 174.426 104.568 172.147C106.835 169.857 108.259 168.382 108.84 167.721C109.945 166.479 110.714 165.431 111.147 164.576C111.591 163.71 111.813 162.861 111.813 162.03C111.813 160.674 111.334 159.569 110.377 158.715C109.431 157.861 108.195 157.433 106.669 157.433C105.587 157.433 104.442 157.621 103.234 157.997C102.038 158.373 100.756 158.943 99.389 159.706V156.22C100.779 155.662 102.078 155.24 103.285 154.955C104.493 154.67 105.598 154.528 106.6 154.528C109.243 154.528 111.351 155.189 112.923 156.51C114.495 157.832 115.281 159.598 115.281 161.808C115.281 162.856 115.082 163.853 114.683 164.799C114.296 165.733 113.584 166.838 112.547 168.114C112.262 168.444 111.356 169.401 109.83 170.985C108.305 172.558 106.151 174.762 103.372 177.599Z" fill="#662B5F"/>
<path d="M147.942 177.599H159.99V180.504H143.789V177.599C145.099 176.243 146.882 174.426 149.138 172.147C151.405 169.857 152.829 168.382 153.41 167.721C154.515 166.479 155.284 165.431 155.717 164.576C156.161 163.71 156.383 162.861 156.384 162.03C156.384 160.674 155.905 159.569 154.948 158.715C154.002 157.861 152.766 157.433 151.24 157.433C150.158 157.433 149.013 157.621 147.805 157.997C146.609 158.373 145.327 158.943 143.96 159.706V156.22C145.35 155.662 146.649 155.24 147.856 154.955C149.064 154.67 150.169 154.528 151.171 154.528C153.814 154.528 155.922 155.189 157.494 156.51C159.066 157.832 159.852 159.598 159.852 161.808C159.852 162.856 159.653 163.853 159.254 164.799C158.867 165.733 158.155 166.838 157.118 168.114C156.833 168.444 155.927 169.401 154.401 170.985C152.875 172.558 150.722 174.762 147.942 177.599Z" fill="#662B5F"/>
<path d="M166.382 154.989H182.788V156.459L173.525 180.504H169.919L178.635 157.894H166.382V154.989Z" fill="#662B5F"/>
<path d="M189.573 154.989H203.125V157.894H192.734V164.149C193.235 163.978 193.737 163.853 194.238 163.773C194.739 163.682 195.241 163.636 195.742 163.636C198.59 163.636 200.846 164.416 202.51 165.977C204.173 167.538 205.005 169.651 205.005 172.317C205.005 175.063 204.151 177.199 202.442 178.726C200.733 180.241 198.323 180.999 195.213 180.999C194.142 180.999 193.048 180.908 191.932 180.726C190.827 180.544 189.682 180.27 188.497 179.906V176.437C189.522 176.995 190.582 177.411 191.676 177.685C192.77 177.959 193.926 178.095 195.145 178.095C197.116 178.095 198.677 177.577 199.828 176.54C200.979 175.503 201.554 174.096 201.554 172.319C201.554 170.542 200.979 169.135 199.828 168.098C198.677 167.061 197.116 166.543 195.145 166.543C194.222 166.543 193.299 166.646 192.376 166.851C191.465 167.056 190.53 167.375 189.573 167.808V154.989Z" fill="#662B5F"/>
<path d="M214.797 177.599H226.845V180.504H210.644V177.599C211.954 176.243 213.737 174.426 215.993 172.147C218.26 169.857 219.684 168.382 220.265 167.721C221.37 166.479 222.139 165.431 222.572 164.576C223.016 163.71 223.238 162.861 223.239 162.03C223.239 160.674 222.76 159.569 221.803 158.715C220.857 157.861 219.621 157.433 218.095 157.433C217.013 157.433 215.868 157.621 214.66 157.997C213.464 158.373 212.182 158.943 210.815 159.706V156.22C212.205 155.662 213.504 155.24 214.711 154.955C215.919 154.67 217.024 154.528 218.026 154.528C220.669 154.528 222.777 155.189 224.349 156.51C225.921 157.832 226.707 159.598 226.707 161.808C226.707 162.856 226.508 163.853 226.109 164.799C225.722 165.733 225.01 166.838 223.973 168.114C223.688 168.444 222.782 169.401 221.256 170.985C219.731 172.558 217.577 174.762 214.797 177.599Z" fill="#662B5F"/>
<path d="M263.777 157.262C262 157.262 260.661 158.139 259.761 159.894C258.872 161.637 258.428 164.263 258.428 167.772C258.428 171.27 258.872 173.896 259.761 175.65C260.661 177.393 262 178.265 263.777 178.265C265.566 178.265 266.904 177.393 267.793 175.65C268.693 173.895 269.143 171.269 269.143 167.772C269.143 164.263 268.693 161.637 267.793 159.894C266.904 158.139 265.566 157.262 263.777 157.262ZM263.777 154.528C266.637 154.528 268.819 155.662 270.322 157.929C271.837 160.185 272.595 163.466 272.595 167.773C272.595 172.068 271.837 175.35 270.322 177.617C268.818 179.873 266.636 181.001 263.777 181.001C260.917 181.001 258.73 179.873 257.214 177.617C255.71 175.35 254.958 172.069 254.958 167.773C254.958 163.466 255.71 160.185 257.214 157.929C258.73 155.661 260.917 154.528 263.777 154.528Z" fill="#662B5F"/>
<path d="M286.062 157.262C284.285 157.262 282.946 158.139 282.046 159.894C281.157 161.637 280.713 164.263 280.713 167.772C280.713 171.27 281.157 173.896 282.046 175.65C282.946 177.393 284.285 178.265 286.062 178.265C287.851 178.265 289.189 177.393 290.078 175.65C290.978 173.895 291.428 171.269 291.428 167.772C291.428 164.263 290.978 161.637 290.078 159.894C289.189 158.139 287.851 157.262 286.062 157.262ZM286.062 154.528C288.922 154.528 291.104 155.662 292.607 157.929C294.122 160.185 294.88 163.466 294.88 167.773C294.88 172.068 294.122 175.35 292.607 177.617C291.103 179.873 288.921 181.001 286.062 181.001C283.202 181.001 281.015 179.873 279.499 177.617C277.995 175.35 277.243 172.069 277.243 167.773C277.243 163.466 277.995 160.185 279.499 157.929C281.015 155.661 283.202 154.528 286.062 154.528Z" fill="#662B5F"/>
<path d="M308.347 157.262C306.57 157.262 305.231 158.139 304.331 159.894C303.442 161.637 302.998 164.263 302.998 167.772C302.998 171.27 303.442 173.896 304.331 175.65C305.231 177.393 306.57 178.265 308.347 178.265C310.136 178.265 311.474 177.393 312.363 175.65C313.263 173.895 313.713 171.269 313.713 167.772C313.713 164.263 313.263 161.637 312.363 159.894C311.475 158.139 310.136 157.262 308.347 157.262ZM308.347 154.528C311.207 154.528 313.389 155.662 314.892 157.929C316.407 160.185 317.165 163.466 317.165 167.773C317.165 172.068 316.407 175.35 314.892 177.617C313.388 179.873 311.206 181.001 308.347 181.001C305.487 181.001 303.3 179.873 301.784 177.617C300.28 175.35 299.528 172.069 299.528 167.773C299.528 163.466 300.28 160.185 301.784 157.929C303.3 155.661 305.487 154.528 308.347 154.528Z" fill="#662B5F"/>
<path d="M322.378 154.989H338.784V156.459L329.521 180.504H325.915L334.631 157.894H322.378V154.989V154.989Z" fill="#662B5F"/>
<path d="M375.63 166.371C374.081 166.371 372.85 166.901 371.939 167.96C371.039 169.02 370.589 170.472 370.589 172.318C370.589 174.152 371.039 175.605 371.939 176.676C372.85 177.736 374.081 178.265 375.63 178.265C377.179 178.265 378.404 177.735 379.304 176.676C380.215 175.605 380.671 174.152 380.671 172.318C380.671 170.472 380.215 169.02 379.304 167.96C378.404 166.901 377.179 166.371 375.63 166.371ZM382.483 155.553V158.698C381.617 158.288 380.74 157.975 379.851 157.758C378.974 157.542 378.102 157.433 377.236 157.433C374.957 157.433 373.214 158.202 372.007 159.74C370.811 161.278 370.127 163.602 369.956 166.713C370.628 165.722 371.471 164.964 372.485 164.44C373.499 163.905 374.616 163.637 375.835 163.637C378.398 163.637 380.421 164.417 381.902 165.978C383.394 167.527 384.141 169.641 384.141 172.318C384.141 174.938 383.366 177.041 381.817 178.624C380.268 180.208 378.205 180.999 375.63 180.999C372.679 180.999 370.423 179.871 368.862 177.615C367.301 175.348 366.521 172.067 366.521 167.771C366.521 163.738 367.478 160.525 369.392 158.132C371.306 155.728 373.875 154.526 377.1 154.526C377.966 154.526 378.837 154.611 379.715 154.782C380.603 154.955 381.526 155.211 382.483 155.553Z" fill="#662B5F"/>
<path d="M389.233 154.989H405.639V156.459L396.376 180.504H392.77L401.486 157.894H389.233V154.989V154.989Z" fill="#662B5F"/>
<path d="M412.493 179.975V176.83C413.359 177.24 414.236 177.554 415.125 177.77C416.014 177.986 416.885 178.095 417.74 178.095C420.019 178.095 421.756 177.332 422.952 175.805C424.16 174.267 424.849 171.937 425.02 168.815C424.359 169.795 423.522 170.547 422.508 171.071C421.494 171.595 420.372 171.857 419.141 171.857C416.589 171.857 414.567 171.088 413.074 169.55C411.593 168.001 410.852 165.887 410.852 163.21C410.852 160.59 411.627 158.488 413.176 156.904C414.725 155.32 416.788 154.529 419.363 154.529C422.314 154.529 424.564 155.663 426.113 157.93C427.674 160.186 428.454 163.467 428.454 167.774C428.454 171.796 427.497 175.009 425.583 177.413C423.68 179.806 421.117 181.002 417.893 181.002C417.027 181.002 416.15 180.917 415.261 180.746C414.372 180.575 413.45 180.316 412.493 179.975ZM419.363 169.157C420.912 169.157 422.137 168.627 423.037 167.568C423.948 166.508 424.404 165.056 424.404 163.21C424.404 161.376 423.948 159.929 423.037 158.869C422.137 157.798 420.912 157.263 419.363 157.263C417.814 157.263 416.583 157.799 415.672 158.869C414.772 159.929 414.322 161.376 414.322 163.21C414.322 165.056 414.772 166.508 415.672 167.568C416.583 168.627 417.813 169.157 419.363 169.157Z" fill="#662B5F"/>
<path d="M435.273 177.599H440.913V158.134L434.778 159.364V156.219L440.879 154.989H444.331V177.599H449.971V180.504H435.274V177.599H435.273Z" fill="#662B5F"/>
<path d="M44.001 91.25V100.875H64.274V91.25H44.001Z" fill="#EBCA3D"/>
<path d="M67.524 91.25V100.875H90.993V91.25H67.524Z" fill="#EBCA3D"/>
<path d="M94.243 91.25V100.875H114.501V91.25C114.501 91.25 94.243 91.25 94.243 91.25Z" fill="#EBCA3D"/>
<path d="M44.001 104.125V113.75H64.274V104.125H44.001Z" fill="#EBCA3D"/>
<path d="M67.524 104.125V113.75H90.993V104.125H67.524Z" fill="#EBCA3D"/>
<path d="M94.243 104.125V113.75H114.501V104.125C114.501 104.125 94.243 104.125 94.243 104.125Z" fill="#EBCA3D"/>
<path d="M55.998 69C49.352 69 44 74.359 44 81.018V88H77.928L63.217 69H55.998Z" fill="#EBCA3D"/>
<path d="M95.709 69L81.389 88H114.5V81.018C114.5 74.36 109.148 69 102.502 69H95.709Z" fill="#EBCA3D"/>
<path d="M67.079 69L79.501 85.5L91.841 69.013L67.079 69Z" fill="#EBCA3D"/>
<path d="M55.998 136C49.352 136 44 130.641 44 123.982V117H77.928L63.217 136H55.998Z" fill="#EBCA3D"/>
<path d="M95.709 136L81.389 117H114.5V123.982C114.5 130.64 109.148 136 102.502 136H95.709Z" fill="#EBCA3D"/>
<path d="M67.057 135.956L79.501 119.5L91.841 135.987L67.057 135.956Z" fill="#EBCA3D"/>
<path d="M409 243.5C409 264.211 392.211 281 371.5 281C350.789 281 334 264.211 334 243.5C334 222.789 350.789 206 371.5 206C392.211 206 409 222.789 409 243.5Z" fill="#E74C3C"/>
<path d="M458.875 243.5C458.875 264.211 442.086 281 421.375 281C400.664 281 383.875 264.211 383.875 243.5C383.875 222.789 400.664 206 421.375 206C442.086 206 458.875 222.789 458.875 243.5Z" fill="#FCD116"/>
<path d="M373.598 217.496V220.996H401.453C400.544 219.771 399.561 218.602 398.51 217.496H373.598Z" fill="#E74C3C"/>
<path d="M373.598 224.496V227.996H405.594C405.05 226.798 404.444 225.63 403.778 224.496H373.598Z" fill="#E74C3C"/>
<path d="M373.598 231.496V234.996H407.977C407.701 233.814 407.368 232.646 406.979 231.496H373.598Z" fill="#E74C3C"/>
<path d="M373.598 238.496V241.996H408.948C408.894 240.825 408.785 239.657 408.622 238.496H373.598Z" fill="#E74C3C"/>
<path d="M373.598 252.496V255.996H406.807C407.213 254.847 407.563 253.679 407.856 252.496H373.598Z" fill="#E74C3C"/>
<path d="M373.598 245.496V248.996H408.547C408.72 247.835 408.837 246.668 408.901 245.496H373.598Z" fill="#E74C3C"/>
<path d="M373.598 252.496V255.996H406.807C407.213 254.847 407.563 253.679 407.856 252.496H373.598Z" fill="#E74C3C"/>
<path d="M373.598 259.496V262.996H403.479C404.169 261.864 404.799 260.695 405.366 259.496H373.598Z" fill="#E74C3C"/>
<path d="M373.598 266.496V269.996H398.002C399.094 268.894 400.116 267.725 401.063 266.496H373.598Z" fill="#E74C3C"/>
<path d="M32.341 153.985H45.893V156.89H35.503V163.145C36.004 162.974 36.506 162.849 37.007 162.769C37.508 162.678 38.01 162.632 38.511 162.632C41.359 162.632 43.615 163.412 45.279 164.973C46.942 166.534 47.774 168.647 47.774 171.313C47.774 174.059 46.92 176.195 45.211 177.722C43.502 179.237 41.092 179.995 37.982 179.995C36.911 179.995 35.817 179.904 34.701 179.722C33.596 179.54 32.451 179.266 31.266 178.902V175.433C32.291 175.991 33.351 176.407 34.445 176.681C35.539 176.954 36.695 177.091 37.914 177.091C39.885 177.091 41.446 176.573 42.597 175.536C43.748 174.499 44.323 173.092 44.323 171.315C44.323 169.538 43.748 168.131 42.597 167.094C41.446 166.057 39.885 165.539 37.914 165.539C36.991 165.539 36.068 165.642 35.145 165.847C34.234 166.052 33.299 166.371 32.342 166.804V153.985H32.341Z" fill="#DCC6E0"/>
<path d="M64.077 156.993L55.361 170.614H64.077V156.993ZM63.171 153.985H67.512V170.613H71.152V173.484H67.512V179.5H64.077V173.484H52.559V170.151L63.171 153.985Z" fill="#DCC6E0"/>
<path d="M76.912 153.985H90.464V156.89H80.073V163.145C80.574 162.974 81.076 162.849 81.577 162.769C82.078 162.678 82.58 162.632 83.081 162.632C85.929 162.632 88.185 163.412 89.849 164.973C91.512 166.534 92.344 168.647 92.344 171.313C92.344 174.059 91.49 176.195 89.781 177.722C88.072 179.237 85.662 179.995 82.552 179.995C81.481 179.995 80.387 179.904 79.271 179.722C78.166 179.54 77.021 179.266 75.836 178.902V175.433C76.861 175.991 77.921 176.407 79.015 176.681C80.109 176.955 81.265 177.091 82.484 177.091C84.455 177.091 86.016 176.573 87.167 175.536C88.318 174.499 88.893 173.092 88.893 171.315C88.893 169.538 88.318 168.131 87.167 167.094C86.016 166.057 84.455 165.539 82.484 165.539C81.561 165.539 80.638 165.642 79.715 165.847C78.804 166.052 77.869 166.371 76.912 166.804C76.912 166.802 76.912 153.985 76.912 153.985Z" fill="#DCC6E0"/>
<path d="M102.136 176.595H114.184V179.5H97.983V176.595C99.293 175.239 101.076 173.422 103.332 171.143C105.599 168.853 107.023 167.378 107.604 166.717C108.709 165.475 109.478 164.427 109.911 163.572C110.355 162.706 110.577 161.857 110.577 161.026C110.577 159.67 110.098 158.565 109.141 157.711C108.195 156.857 106.959 156.429 105.433 156.429C104.351 156.429 103.206 156.617 101.998 156.993C100.802 157.369 99.52 157.939 98.153 158.702V155.216C99.543 154.658 100.842 154.236 102.049 153.951C103.257 153.666 104.362 153.524 105.364 153.524C108.007 153.524 110.115 154.185 111.687 155.506C113.259 156.828 114.045 158.594 114.045 160.804C114.045 161.852 113.846 162.849 113.447 163.795C113.06 164.729 112.348 165.834 111.311 167.11C111.026 167.44 110.12 168.397 108.594 169.981C107.069 171.553 104.916 173.758 102.136 176.595Z" fill="#DCC6E0"/>
<path d="M146.707 176.595H158.755V179.5H142.554V176.595C143.864 175.239 145.647 173.422 147.903 171.143C150.17 168.853 151.594 167.378 152.175 166.717C153.28 165.475 154.049 164.427 154.482 163.572C154.926 162.706 155.149 161.857 155.149 161.026C155.149 159.67 154.67 158.565 153.713 157.711C152.767 156.857 151.531 156.429 150.005 156.429C148.923 156.429 147.778 156.617 146.57 156.993C145.374 157.369 144.092 157.939 142.725 158.702V155.216C144.115 154.658 145.414 154.236 146.621 153.951C147.829 153.666 148.934 153.524 149.936 153.524C152.579 153.524 154.687 154.185 156.259 155.506C157.831 156.828 158.617 158.594 158.617 160.804C158.617 161.852 158.418 162.849 158.019 163.795C157.632 164.729 156.92 165.834 155.883 167.11C155.598 167.44 154.692 168.397 153.166 169.981C151.64 171.553 149.486 173.758 146.707 176.595Z" fill="#DCC6E0"/>
<path d="M165.146 153.985H181.552V155.455L172.289 179.5H168.683L177.399 156.89H165.146V153.985V153.985Z" fill="#DCC6E0"/>
<path d="M188.337 153.985H201.889V156.89H191.498V163.145C191.999 162.974 192.501 162.849 193.002 162.769C193.503 162.678 194.005 162.632 194.506 162.632C197.354 162.632 199.61 163.412 201.274 164.973C202.937 166.534 203.769 168.647 203.769 171.313C203.769 174.059 202.915 176.195 201.206 177.722C199.497 179.237 197.087 179.995 193.977 179.995C192.906 179.995 191.812 179.904 190.696 179.722C189.591 179.54 188.446 179.266 187.261 178.902V175.433C188.286 175.991 189.346 176.407 190.44 176.681C191.534 176.955 192.69 177.091 193.909 177.091C195.88 177.091 197.441 176.573 198.592 175.536C199.743 174.499 200.318 173.092 200.318 171.315C200.318 169.538 199.743 168.131 198.592 167.094C197.441 166.057 195.88 165.539 193.909 165.539C192.986 165.539 192.063 165.642 191.14 165.847C190.229 166.052 189.294 166.371 188.337 166.804V153.985Z" fill="#DCC6E0"/>
<path d="M213.562 176.595H225.61V179.5H209.409V176.595C210.719 175.239 212.502 173.422 214.758 171.143C217.025 168.853 218.449 167.378 219.03 166.717C220.135 165.475 220.904 164.427 221.337 163.572C221.781 162.706 222.004 161.857 222.004 161.026C222.004 159.67 221.525 158.565 220.568 157.711C219.622 156.857 218.386 156.429 216.86 156.429C215.778 156.429 214.633 156.617 213.425 156.993C212.229 157.369 210.947 157.939 209.58 158.702V155.216C210.97 154.658 212.269 154.236 213.476 153.951C214.684 153.666 215.789 153.524 216.791 153.524C219.434 153.524 221.542 154.185 223.114 155.506C224.686 156.828 225.472 158.594 225.472 160.804C225.472 161.852 225.273 162.849 224.874 163.795C224.487 164.729 223.775 165.834 222.738 167.11C222.453 167.44 221.547 168.397 220.021 169.981C218.495 171.553 216.342 173.758 213.562 176.595Z" fill="#DCC6E0"/>
<path d="M262.542 156.258C260.765 156.258 259.426 157.135 258.526 158.89C257.637 160.633 257.193 163.259 257.193 166.768C257.193 170.266 257.637 172.892 258.526 174.646C259.426 176.389 260.765 177.261 262.542 177.261C264.331 177.261 265.669 176.389 266.558 174.646C267.458 172.891 267.908 170.265 267.908 166.768C267.908 163.259 267.458 160.633 266.558 158.89C265.669 157.135 264.33 156.258 262.542 156.258ZM262.542 153.523C265.402 153.523 267.584 154.657 269.087 156.924C270.602 159.18 271.36 162.461 271.36 166.768C271.36 171.063 270.602 174.345 269.087 176.612C267.583 178.868 265.401 179.996 262.542 179.996C259.683 179.996 257.495 178.868 255.979 176.612C254.475 174.345 253.723 171.064 253.723 166.768C253.723 162.461 254.475 159.18 255.979 156.924C257.494 154.657 259.682 153.523 262.542 153.523Z" fill="#DCC6E0"/>
<path d="M284.827 156.258C283.05 156.258 281.711 157.135 280.811 158.89C279.922 160.633 279.478 163.259 279.478 166.768C279.478 170.266 279.922 172.892 280.811 174.646C281.711 176.389 283.05 177.261 284.827 177.261C286.616 177.261 287.954 176.389 288.843 174.646C289.743 172.891 290.193 170.265 290.193 166.768C290.193 163.259 289.743 160.633 288.843 158.89C287.954 157.135 286.615 156.258 284.827 156.258ZM284.827 153.523C287.687 153.523 289.869 154.657 291.372 156.924C292.887 159.18 293.645 162.461 293.645 166.768C293.645 171.063 292.887 174.345 291.372 176.612C289.868 178.868 287.686 179.996 284.827 179.996C281.968 179.996 279.78 178.868 278.264 176.612C276.76 174.345 276.008 171.064 276.008 166.768C276.008 162.461 276.76 159.18 278.264 156.924C279.779 154.657 281.967 153.523 284.827 153.523Z" fill="#DCC6E0"/>
<path d="M307.112 156.258C305.335 156.258 303.996 157.135 303.096 158.89C302.207 160.633 301.763 163.259 301.763 166.768C301.763 170.266 302.207 172.892 303.096 174.646C303.996 176.389 305.335 177.261 307.112 177.261C308.901 177.261 310.239 176.389 311.128 174.646C312.028 172.891 312.478 170.265 312.478 166.768C312.478 163.259 312.028 160.633 311.128 158.89C310.239 157.135 308.901 156.258 307.112 156.258ZM307.112 153.523C309.972 153.523 312.154 154.657 313.657 156.924C315.172 159.18 315.93 162.461 315.93 166.768C315.93 171.063 315.172 174.345 313.657 176.612C312.153 178.868 309.971 179.996 307.112 179.996C304.253 179.996 302.065 178.868 300.549 176.612C299.045 174.345 298.293 171.064 298.293 166.768C298.293 162.461 299.045 159.18 300.549 156.924C302.065 154.657 304.252 153.523 307.112 153.523Z" fill="#DCC6E0"/>
<path d="M321.143 153.985H337.549V155.455L328.286 179.5H324.68L333.396 156.89H321.143V153.985V153.985Z" fill="#DCC6E0"/>
<path d="M374.395 165.367C372.846 165.367 371.615 165.897 370.704 166.956C369.804 168.016 369.354 169.468 369.354 171.314C369.354 173.148 369.804 174.601 370.704 175.672C371.615 176.732 372.846 177.261 374.395 177.261C375.944 177.261 377.169 176.731 378.069 175.672C378.98 174.601 379.436 173.148 379.436 171.314C379.436 169.468 378.98 168.016 378.069 166.956C377.169 165.896 375.944 165.367 374.395 165.367ZM381.248 154.549V157.694C380.382 157.284 379.505 156.971 378.616 156.754C377.739 156.538 376.867 156.429 376.001 156.429C373.722 156.429 371.979 157.198 370.772 158.736C369.576 160.274 368.892 162.598 368.721 165.709C369.393 164.718 370.236 163.96 371.25 163.436C372.264 162.901 373.381 162.633 374.6 162.633C377.163 162.633 379.186 163.413 380.667 164.974C382.16 166.523 382.906 168.637 382.906 171.314C382.906 173.934 382.131 176.037 380.582 177.62C379.033 179.204 376.97 179.995 374.395 179.995C371.444 179.995 369.188 178.867 367.627 176.611C366.066 174.344 365.286 171.063 365.286 166.767C365.286 162.734 366.243 159.521 368.157 157.128C370.071 154.724 372.64 153.522 375.865 153.522C376.731 153.522 377.602 153.607 378.48 153.778C379.368 153.951 380.291 154.207 381.248 154.549Z" fill="#DCC6E0"/>
<path d="M387.998 153.985H404.404V155.455L395.141 179.5H391.535L400.251 156.89H387.998V153.985V153.985Z" fill="#DCC6E0"/>
<path d="M411.257 178.97V175.825C412.123 176.235 413 176.549 413.889 176.765C414.778 176.981 415.649 177.09 416.504 177.09C418.783 177.09 420.52 176.327 421.716 174.8C422.924 173.262 423.613 170.932 423.784 167.81C423.123 168.79 422.286 169.542 421.272 170.066C420.258 170.59 419.136 170.852 417.905 170.852C415.353 170.852 413.331 170.083 411.838 168.545C410.357 166.996 409.616 164.882 409.616 162.205C409.616 159.585 410.391 157.483 411.94 155.899C413.489 154.315 415.552 153.524 418.127 153.524C421.078 153.524 423.328 154.658 424.877 156.925C426.438 159.181 427.218 162.462 427.218 166.769C427.218 170.791 426.261 174.004 424.347 176.408C422.444 178.801 419.881 179.997 416.657 179.997C415.791 179.997 414.914 179.912 414.025 179.741C413.136 179.57 412.214 179.312 411.257 178.97ZM418.127 168.152C419.676 168.152 420.901 167.622 421.801 166.563C422.712 165.503 423.168 164.051 423.168 162.205C423.168 160.371 422.712 158.924 421.801 157.864C420.901 156.793 419.676 156.258 418.127 156.258C416.578 156.258 415.347 156.794 414.436 157.864C413.536 158.924 413.086 160.371 413.086 162.205C413.086 164.051 413.536 165.503 414.436 166.563C415.348 167.622 416.578 168.152 418.127 168.152Z" fill="#DCC6E0"/>
<path d="M434.038 176.595H439.678V157.13L433.543 158.36V155.215L439.644 153.985H443.096V176.595H448.736V179.5H434.039V176.595H434.038Z" fill="#DCC6E0"/>
<path d="M74.242 231.84C74.242 230.017 74.069 228.735 73.724 227.992C73.385 227.243 72.813 226.869 72.005 226.869C71.198 226.869 70.622 227.243 70.276 227.992C69.931 228.734 69.758 230.017 69.758 231.84C69.758 233.682 69.931 234.981 70.276 235.736C70.621 236.491 71.197 236.869 72.005 236.869C72.806 236.869 73.379 236.491 73.724 235.736C74.07 234.981 74.242 233.682 74.242 231.84ZM78.002 231.869C78.002 234.284 77.481 236.15 76.439 237.465C75.397 238.774 73.919 239.428 72.005 239.428C70.084 239.428 68.603 238.774 67.562 237.465C66.52 236.15 65.999 234.285 65.999 231.869C65.999 229.447 66.52 227.582 67.562 226.273C68.604 224.958 70.085 224.3 72.005 224.3C73.919 224.3 75.397 224.958 76.439 226.273C77.481 227.582 78.002 229.447 78.002 231.869Z" fill="#DCC6E0"/>
<path d="M81.068 224.564H90.414V227.328H84.066V229.584C84.352 229.506 84.639 229.447 84.925 229.408C85.218 229.362 85.521 229.34 85.833 229.34C87.61 229.34 88.994 229.786 89.983 230.678C90.973 231.563 91.467 232.8 91.467 234.389C91.467 235.965 90.927 237.198 89.846 238.09C88.772 238.982 87.278 239.428 85.364 239.428C84.537 239.428 83.717 239.347 82.903 239.184C82.096 239.028 81.292 238.787 80.491 238.461V235.502C81.285 235.958 82.037 236.3 82.747 236.527C83.463 236.755 84.137 236.869 84.768 236.869C85.679 236.869 86.396 236.648 86.916 236.205C87.443 235.756 87.707 235.15 87.707 234.389C87.707 233.621 87.443 233.015 86.916 232.573C86.395 232.13 85.679 231.909 84.768 231.909C84.228 231.909 83.651 231.981 83.039 232.124C82.427 232.261 81.769 232.476 81.066 232.769V224.564H81.068Z" fill="#DCC6E0"/>
<path d="M104.945 224.564H107.113L101.967 241H99.809L104.945 224.564Z" fill="#DCC6E0"/>
<path d="M116.41 236.547H119.73V227.123L116.322 227.826V225.267L119.711 224.564H123.285V236.546H126.605V239.144H116.41V236.547Z" fill="#DCC6E0"/>
<path d="M137.289 231.283C138.272 231.537 139.018 231.98 139.525 232.611C140.039 233.236 140.296 234.034 140.296 235.004C140.296 236.449 139.743 237.55 138.636 238.305C137.529 239.054 135.915 239.428 133.792 239.428C133.043 239.428 132.291 239.366 131.536 239.242C130.787 239.125 130.045 238.946 129.309 238.705V235.805C130.012 236.157 130.709 236.424 131.399 236.606C132.096 236.782 132.779 236.87 133.45 236.87C134.446 236.87 135.208 236.698 135.735 236.352C136.269 236.007 136.536 235.512 136.536 234.868C136.536 234.204 136.263 233.703 135.716 233.364C135.176 233.019 134.375 232.846 133.314 232.846H131.81V230.424H133.392C134.336 230.424 135.039 230.278 135.501 229.985C135.963 229.686 136.194 229.233 136.194 228.628C136.194 228.068 135.969 227.635 135.52 227.329C135.071 227.023 134.436 226.87 133.616 226.87C133.011 226.87 132.399 226.938 131.78 227.075C131.161 227.212 130.546 227.414 129.934 227.68V224.926C130.676 224.718 131.412 224.561 132.141 224.457C132.87 224.353 133.586 224.301 134.289 224.301C136.184 224.301 137.6 224.614 138.537 225.239C139.481 225.858 139.953 226.792 139.953 228.042C139.953 228.895 139.728 229.595 139.279 230.142C138.832 230.681 138.168 231.062 137.289 231.283Z" fill="#DCC6E0"/>
<path d="M149.916 231.967H156.049V234.809H149.916V231.967Z" fill="#DCC6E0"/>
<path d="M173.305 231.84C173.305 230.017 173.132 228.735 172.787 227.992C172.448 227.243 171.876 226.869 171.068 226.869C170.261 226.869 169.685 227.243 169.339 227.992C168.994 228.734 168.821 230.017 168.821 231.84C168.821 233.682 168.994 234.981 169.339 235.736C169.684 236.491 170.26 236.869 171.068 236.869C171.869 236.869 172.442 236.491 172.787 235.736C173.132 234.981 173.305 233.682 173.305 231.84ZM177.064 231.869C177.064 234.284 176.543 236.15 175.501 237.465C174.459 238.774 172.981 239.428 171.067 239.428C169.146 239.428 167.665 238.774 166.624 237.465C165.582 236.15 165.061 234.285 165.061 231.869C165.061 229.447 165.582 227.582 166.624 226.273C167.666 224.958 169.147 224.3 171.067 224.3C172.981 224.3 174.459 224.958 175.501 226.273C176.544 227.582 177.064 229.447 177.064 231.869Z" fill="#DCC6E0"/>
<path d="M180.131 224.564H189.477V227.328H183.129V229.584C183.415 229.506 183.702 229.447 183.988 229.408C184.281 229.362 184.584 229.34 184.896 229.34C186.673 229.34 188.057 229.786 189.046 230.678C190.036 231.563 190.53 232.8 190.53 234.389C190.53 235.965 189.99 237.198 188.909 238.09C187.835 238.982 186.341 239.428 184.427 239.428C183.6 239.428 182.78 239.347 181.966 239.184C181.159 239.028 180.355 238.787 179.554 238.461V235.502C180.348 235.958 181.1 236.3 181.81 236.527C182.526 236.755 183.2 236.869 183.831 236.869C184.742 236.869 185.459 236.648 185.979 236.205C186.506 235.756 186.77 235.15 186.77 234.389C186.77 233.621 186.506 233.015 185.979 232.573C185.458 232.13 184.742 231.909 183.831 231.909C183.291 231.909 182.714 231.981 182.102 232.124C181.49 232.261 180.832 232.476 180.129 232.769L180.131 224.564Z" fill="#DCC6E0"/>
<path d="M204.008 224.564H206.176L201.03 241H198.872L204.008 224.564Z" fill="#DCC6E0"/>
<path d="M215.473 236.547H218.793V227.123L215.385 227.826V225.267L218.774 224.564H222.348V236.546H225.668V239.144H215.473V236.547V236.547Z" fill="#DCC6E0"/>
<path d="M233.998 232.621C233.295 232.621 232.755 232.813 232.377 233.197C231.999 233.581 231.811 234.131 231.811 234.847C231.811 235.563 232 236.113 232.377 236.497C232.755 236.875 233.295 237.063 233.998 237.063C234.695 237.063 235.228 236.874 235.6 236.497C235.971 236.113 236.157 235.563 236.157 234.847C236.157 234.124 235.971 233.574 235.6 233.197C235.229 232.813 234.695 232.621 233.998 232.621ZM231.254 231.381C230.369 231.114 229.701 230.704 229.252 230.151C228.803 229.598 228.578 228.908 228.578 228.081C228.578 226.851 229.037 225.913 229.955 225.268C230.873 224.623 232.221 224.301 233.998 224.301C235.762 224.301 237.103 224.623 238.021 225.268C238.939 225.906 239.398 226.844 239.398 228.081C239.398 228.908 239.17 229.598 238.714 230.151C238.265 230.704 237.597 231.115 236.712 231.381C237.702 231.654 238.447 232.1 238.948 232.719C239.456 233.331 239.71 234.106 239.71 235.043C239.71 236.488 239.228 237.582 238.265 238.324C237.308 239.06 235.885 239.428 233.997 239.428C232.102 239.428 230.67 239.06 229.7 238.324C228.736 237.582 228.255 236.488 228.255 235.043C228.255 234.105 228.506 233.331 229.007 232.719C229.516 232.1 230.264 231.654 231.254 231.381ZM232.133 228.461C232.133 229.04 232.293 229.486 232.612 229.799C232.938 230.112 233.4 230.268 233.999 230.268C234.585 230.268 235.037 230.112 235.356 229.799C235.675 229.486 235.835 229.041 235.835 228.461C235.835 227.882 235.675 227.439 235.356 227.133C235.037 226.82 234.585 226.664 233.999 226.664C233.4 226.664 232.938 226.82 232.612 227.133C232.292 227.445 232.133 227.888 232.133 228.461Z" fill="#DCC6E0"/>
<path d="M316.552 18.257H319.291L323.507 35.203L327.71 18.257H330.758L334.974 35.203L339.177 18.257H341.93L336.895 38.305H333.484L329.254 20.903L324.984 38.305H321.573L316.552 18.257Z" fill="#EBCA3D"/>
<path d="M363.653 20.096C361.684 20.096 360.117 20.83 358.953 22.298C357.798 23.766 357.221 25.767 357.221 28.3C357.221 30.824 357.798 32.821 358.953 34.289C360.117 35.757 361.683 36.491 363.653 36.491C365.622 36.491 367.18 35.757 368.326 34.289C369.481 32.821 370.058 30.825 370.058 28.3C370.058 25.767 369.481 23.766 368.326 22.298C367.18 20.83 365.623 20.096 363.653 20.096ZM363.653 17.894C366.464 17.894 368.711 18.838 370.394 20.727C372.077 22.607 372.918 25.131 372.918 28.3C372.918 31.46 372.077 33.984 370.394 35.873C368.711 37.753 366.464 38.693 363.653 38.693C360.833 38.693 358.577 37.753 356.885 35.873C355.202 33.993 354.361 31.469 354.361 28.3C354.361 25.131 355.202 22.607 356.885 20.727C358.577 18.839 360.833 17.894 363.653 17.894Z" fill="#EBCA3D"/>
<path d="M396.668 28.905C397.25 29.102 397.814 29.523 398.36 30.167C398.915 30.812 399.47 31.698 400.025 32.826L402.778 38.305H399.864L397.299 33.162C396.637 31.819 395.992 30.929 395.365 30.49C394.747 30.051 393.901 29.832 392.827 29.832H389.873V38.305H387.161V18.257H393.284C395.576 18.257 397.285 18.736 398.413 19.694C399.541 20.652 400.105 22.098 400.105 24.031C400.105 25.293 399.81 26.341 399.219 27.173C398.638 28.005 397.787 28.583 396.668 28.905ZM389.874 20.486V27.603H393.285C394.592 27.603 395.577 27.303 396.239 26.703C396.91 26.094 397.246 25.204 397.246 24.031C397.246 22.858 396.91 21.977 396.239 21.386C395.577 20.786 394.592 20.486 393.285 20.486H389.874Z" fill="#EBCA3D"/>
<path d="M416.283 18.257H418.995V36.022H428.757V38.305H416.283V18.257Z" fill="#EBCA3D"/>
<path d="M444.303 20.486V36.076H447.579C450.345 36.076 452.368 35.449 453.648 34.196C454.937 32.943 455.582 30.964 455.582 28.261C455.582 25.575 454.937 23.611 453.648 22.366C452.368 21.113 450.345 20.486 447.579 20.486H444.303V20.486ZM441.59 18.257H447.163C451.048 18.257 453.899 19.067 455.716 20.687C457.533 22.298 458.442 24.823 458.442 28.26C458.442 31.715 457.529 34.253 455.703 35.874C453.877 37.494 451.03 38.304 447.163 38.304H441.59V18.257Z" fill="#EBCA3D"/>
<path d="M27.595 269.154H29.198V281H27.595V269.154Z" fill="#DCC6E0"/>
<path d="M39.711 275.636V281H38.251V275.684C38.251 274.843 38.087 274.213 37.759 273.796C37.431 273.378 36.939 273.169 36.283 273.169C35.495 273.169 34.873 273.42 34.418 273.923C33.963 274.426 33.736 275.111 33.736 275.978V281.001H32.268V272.114H33.736V273.495C34.085 272.961 34.495 272.561 34.966 272.297C35.442 272.032 35.99 271.9 36.608 271.9C37.629 271.9 38.401 272.217 38.925 272.852C39.449 273.481 39.711 274.409 39.711 275.636Z" fill="#DCC6E0"/>
<path d="M44.083 269.59V272.113H47.09V273.248H44.083V278.072C44.083 278.797 44.181 279.262 44.377 279.468C44.578 279.674 44.983 279.777 45.591 279.777H47.091V280.999H45.591C44.464 280.999 43.687 280.79 43.258 280.372C42.83 279.949 42.615 279.182 42.615 278.071V273.247H41.544V272.112H42.615V269.589H44.083V269.59Z" fill="#DCC6E0"/>
<path d="M56.62 276.192V276.906H49.907C49.97 277.911 50.272 278.678 50.812 279.207C51.357 279.731 52.113 279.993 53.081 279.993C53.642 279.993 54.184 279.924 54.708 279.787C55.237 279.649 55.761 279.443 56.279 279.168V280.549C55.755 280.771 55.218 280.94 54.668 281.057C54.118 281.173 53.56 281.232 52.994 281.232C51.576 281.232 50.452 280.819 49.622 279.994C48.797 279.169 48.384 278.053 48.384 276.646C48.384 275.191 48.775 274.038 49.558 273.187C50.346 272.33 51.407 271.902 52.74 271.902C53.935 271.902 54.88 272.288 55.573 273.06C56.27 273.824 56.62 274.869 56.62 276.192ZM55.16 275.763C55.149 274.964 54.925 274.327 54.486 273.851C54.052 273.375 53.476 273.137 52.756 273.137C51.941 273.137 51.288 273.367 50.796 273.827C50.309 274.287 50.029 274.935 49.955 275.771L55.16 275.763Z" fill="#DCC6E0"/>
<path d="M64.165 273.478C64.001 273.383 63.821 273.314 63.625 273.272C63.435 273.224 63.223 273.201 62.99 273.201C62.165 273.201 61.53 273.471 61.086 274.01C60.647 274.544 60.427 275.314 60.427 276.319V281H58.96V272.113H60.428V273.494C60.735 272.954 61.134 272.555 61.626 272.296C62.118 272.031 62.716 271.899 63.419 271.899C63.52 271.899 63.631 271.907 63.752 271.923C63.874 271.934 64.009 271.952 64.157 271.979L64.165 273.478Z" fill="#DCC6E0"/>
<path d="M72.814 275.636V281H71.354V275.684C71.354 274.843 71.19 274.213 70.862 273.796C70.534 273.378 70.042 273.169 69.386 273.169C68.598 273.169 67.976 273.42 67.521 273.923C67.066 274.426 66.839 275.111 66.839 275.978V281.001H65.371V272.114H66.839V273.495C67.188 272.961 67.598 272.561 68.069 272.297C68.545 272.032 69.093 271.9 69.711 271.9C70.732 271.9 71.504 272.217 72.028 272.852C72.552 273.481 72.814 274.409 72.814 275.636Z" fill="#DCC6E0"/>
<path d="M79.781 276.533C78.601 276.533 77.784 276.668 77.329 276.938C76.874 277.208 76.647 277.668 76.647 278.319C76.647 278.837 76.816 279.25 77.155 279.557C77.499 279.859 77.964 280.009 78.551 280.009C79.36 280.009 80.008 279.723 80.495 279.152C80.987 278.575 81.233 277.811 81.233 276.859V276.534H79.781V276.533ZM82.693 275.93V281H81.233V279.651C80.9 280.191 80.485 280.59 79.987 280.849C79.49 281.103 78.881 281.23 78.162 281.23C77.252 281.23 76.527 280.976 75.988 280.468C75.454 279.955 75.187 279.27 75.187 278.413C75.187 277.413 75.52 276.659 76.187 276.152C76.859 275.644 77.859 275.39 79.186 275.39H81.233V275.247C81.233 274.575 81.011 274.057 80.567 273.692C80.128 273.322 79.509 273.137 78.71 273.137C78.202 273.137 77.708 273.198 77.226 273.319C76.745 273.441 76.282 273.623 75.837 273.866V272.517C76.371 272.311 76.89 272.157 77.392 272.057C77.895 271.951 78.384 271.898 78.86 271.898C80.145 271.898 81.105 272.231 81.74 272.898C82.375 273.565 82.693 274.576 82.693 275.93Z" fill="#DCC6E0"/>
<path d="M87.152 269.59V272.113H90.159V273.248H87.152V278.072C87.152 278.797 87.25 279.262 87.446 279.468C87.647 279.674 88.052 279.777 88.66 279.777H90.16V280.999H88.66C87.533 280.999 86.756 280.79 86.327 280.372C85.899 279.949 85.684 279.182 85.684 278.071V273.247H84.613V272.112H85.684V269.589C85.684 269.59 87.152 269.59 87.152 269.59Z" fill="#DCC6E0"/>
<path d="M92.087 272.113H93.547V281H92.087V272.113ZM92.087 268.654H93.547V270.503H92.087V268.654Z" fill="#DCC6E0"/>
<path d="M100.037 273.137C99.254 273.137 98.635 273.444 98.18 274.057C97.725 274.665 97.498 275.501 97.498 276.564C97.498 277.627 97.723 278.466 98.172 279.079C98.627 279.687 99.248 279.991 100.037 279.991C100.815 279.991 101.431 279.684 101.886 279.071C102.341 278.457 102.568 277.622 102.568 276.564C102.568 275.511 102.341 274.678 101.886 274.065C101.431 273.446 100.815 273.137 100.037 273.137ZM100.037 271.899C101.307 271.899 102.304 272.312 103.028 273.137C103.753 273.962 104.115 275.105 104.115 276.565C104.115 278.02 103.753 279.162 103.028 279.993C102.303 280.818 101.306 281.231 100.037 281.231C98.762 281.231 97.762 280.818 97.038 279.993C96.319 279.162 95.959 278.02 95.959 276.565C95.959 275.105 96.319 273.962 97.038 273.137C97.763 272.312 98.763 271.899 100.037 271.899Z" fill="#DCC6E0"/>
<path d="M113.915 275.636V281H112.455V275.684C112.455 274.843 112.291 274.213 111.963 273.796C111.635 273.378 111.143 273.169 110.487 273.169C109.699 273.169 109.077 273.42 108.622 273.923C108.167 274.426 107.94 275.111 107.94 275.978V281.001H106.472V272.114H107.94V273.495C108.289 272.961 108.699 272.561 109.17 272.297C109.646 272.032 110.194 271.9 110.812 271.9C111.833 271.9 112.605 272.217 113.129 272.852C113.653 273.481 113.915 274.409 113.915 275.636Z" fill="#DCC6E0"/>
<path d="M120.882 276.533C119.702 276.533 118.885 276.668 118.43 276.938C117.975 277.208 117.748 277.668 117.748 278.319C117.748 278.837 117.917 279.25 118.256 279.557C118.6 279.859 119.065 280.009 119.652 280.009C120.461 280.009 121.109 279.723 121.596 279.152C122.088 278.575 122.334 277.811 122.334 276.859V276.534H120.882V276.533ZM123.794 275.93V281H122.334V279.651C122.001 280.191 121.586 280.59 121.088 280.849C120.591 281.103 119.982 281.23 119.263 281.23C118.353 281.23 117.628 280.976 117.089 280.468C116.555 279.955 116.288 279.27 116.288 278.413C116.288 277.413 116.621 276.659 117.288 276.152C117.96 275.644 118.96 275.39 120.287 275.39H122.334V275.247C122.334 274.575 122.112 274.057 121.667 273.692C121.228 273.322 120.609 273.137 119.81 273.137C119.302 273.137 118.808 273.198 118.326 273.319C117.845 273.441 117.382 273.623 116.937 273.866V272.517C117.471 272.311 117.99 272.157 118.492 272.057C118.995 271.951 119.484 271.898 119.96 271.898C121.245 271.898 122.205 272.231 122.84 272.898C123.475 273.565 123.794 274.576 123.794 275.93Z" fill="#DCC6E0"/>
<path d="M126.809 268.654H128.269V281H126.809V268.654V268.654Z" fill="#DCC6E0"/>
<path d="M145.423 270.066V271.756C144.883 271.253 144.307 270.878 143.693 270.629C143.085 270.38 142.437 270.256 141.749 270.256C140.395 270.256 139.358 270.671 138.639 271.502C137.92 272.327 137.56 273.523 137.56 275.088C137.56 276.648 137.92 277.844 138.639 278.674C139.358 279.499 140.395 279.912 141.749 279.912C142.437 279.912 143.085 279.788 143.693 279.539C144.307 279.29 144.883 278.915 145.423 278.412V280.086C144.862 280.467 144.267 280.753 143.638 280.943C143.014 281.133 142.353 281.229 141.654 281.229C139.861 281.229 138.448 280.682 137.417 279.587C136.386 278.487 135.87 276.987 135.87 275.088C135.87 273.184 136.386 271.684 137.417 270.589C138.448 269.489 139.861 268.939 141.654 268.939C142.363 268.939 143.029 269.034 143.654 269.225C144.283 269.41 144.873 269.691 145.423 270.066Z" fill="#DCC6E0"/>
<path d="M153.001 273.478C152.837 273.383 152.657 273.314 152.461 273.272C152.271 273.224 152.059 273.201 151.826 273.201C151.001 273.201 150.366 273.471 149.922 274.01C149.483 274.544 149.263 275.314 149.263 276.319V281H147.795V272.113H149.263V273.494C149.57 272.954 149.969 272.555 150.461 272.296C150.953 272.031 151.551 271.899 152.254 271.899C152.355 271.899 152.466 271.907 152.587 271.923C152.709 271.934 152.844 271.952 152.992 271.979L153.001 273.478Z" fill="#DCC6E0"/>
<path d="M161.8 276.192V276.906H155.087C155.15 277.911 155.452 278.678 155.992 279.207C156.537 279.731 157.293 279.993 158.261 279.993C158.822 279.993 159.364 279.924 159.888 279.787C160.417 279.649 160.941 279.443 161.459 279.168V280.549C160.935 280.771 160.398 280.94 159.848 281.057C159.298 281.173 158.74 281.232 158.174 281.232C156.756 281.232 155.632 280.819 154.802 279.994C153.977 279.169 153.564 278.053 153.564 276.646C153.564 275.191 153.955 274.038 154.738 273.187C155.526 272.33 156.587 271.902 157.92 271.902C159.115 271.902 160.06 272.288 160.753 273.06C161.451 273.824 161.8 274.869 161.8 276.192ZM160.34 275.763C160.329 274.964 160.105 274.327 159.666 273.851C159.232 273.375 158.656 273.137 157.936 273.137C157.121 273.137 156.468 273.367 155.976 273.827C155.489 274.287 155.209 274.935 155.135 275.771L160.34 275.763Z" fill="#DCC6E0"/>
<path d="M170.044 273.462V268.654H171.504V281H170.044V279.667C169.737 280.196 169.348 280.59 168.878 280.849C168.413 281.103 167.852 281.23 167.196 281.23C166.122 281.23 165.247 280.802 164.57 279.945C163.898 279.088 163.562 277.961 163.562 276.565C163.562 275.169 163.898 274.042 164.57 273.185C165.247 272.328 166.123 271.9 167.196 271.9C167.852 271.9 168.413 272.03 168.878 272.289C169.349 272.542 169.737 272.933 170.044 273.462ZM165.069 276.564C165.069 277.638 165.289 278.482 165.728 279.095C166.172 279.703 166.781 280.007 167.553 280.007C168.325 280.007 168.934 279.703 169.378 279.095C169.822 278.481 170.045 277.638 170.045 276.564C170.045 275.49 169.823 274.649 169.378 274.041C168.934 273.427 168.325 273.121 167.553 273.121C166.781 273.121 166.172 273.428 165.728 274.041C165.289 274.65 165.069 275.491 165.069 276.564Z" fill="#DCC6E0"/>
<path d="M174.511 272.113H175.971V281H174.511V272.113ZM174.511 268.654H175.971V270.503H174.511V268.654Z" fill="#DCC6E0"/>
<path d="M180.462 269.59V272.113H183.469V273.248H180.462V278.072C180.462 278.797 180.56 279.262 180.756 279.468C180.957 279.674 181.362 279.777 181.97 279.777H183.47V280.999H181.97C180.843 280.999 180.066 280.79 179.637 280.372C179.209 279.949 178.994 279.182 178.994 278.071V273.247H177.923V272.112H178.994V269.589H180.462V269.59Z" fill="#DCC6E0"/>
<path d="M199.505 270.066V271.756C198.965 271.253 198.389 270.878 197.775 270.629C197.167 270.38 196.519 270.256 195.831 270.256C194.477 270.256 193.44 270.671 192.721 271.502C192.002 272.327 191.642 273.523 191.642 275.088C191.642 276.648 192.002 277.844 192.721 278.674C193.44 279.499 194.477 279.912 195.831 279.912C196.519 279.912 197.167 279.788 197.775 279.539C198.389 279.29 198.965 278.915 199.505 278.412V280.086C198.944 280.467 198.349 280.753 197.72 280.943C197.096 281.133 196.435 281.229 195.736 281.229C193.943 281.229 192.53 280.682 191.499 279.587C190.468 278.487 189.952 276.987 189.952 275.088C189.952 273.184 190.468 271.684 191.499 270.589C192.53 269.489 193.943 268.939 195.736 268.939C196.445 268.939 197.111 269.034 197.736 269.225C198.365 269.41 198.955 269.691 199.505 270.066Z" fill="#DCC6E0"/>
<path d="M205.972 276.533C204.792 276.533 203.975 276.668 203.52 276.938C203.065 277.208 202.838 277.668 202.838 278.319C202.838 278.837 203.007 279.25 203.346 279.557C203.69 279.859 204.155 280.009 204.742 280.009C205.551 280.009 206.199 279.723 206.686 279.152C207.178 278.575 207.424 277.811 207.424 276.859V276.534H205.972V276.533ZM208.884 275.93V281H207.424V279.651C207.091 280.191 206.676 280.59 206.178 280.849C205.681 281.103 205.072 281.23 204.353 281.23C203.443 281.23 202.718 280.976 202.179 280.468C201.645 279.955 201.378 279.27 201.378 278.413C201.378 277.413 201.711 276.659 202.378 276.152C203.05 275.644 204.05 275.39 205.377 275.39H207.424V275.247C207.424 274.575 207.202 274.057 206.757 273.692C206.318 273.322 205.699 273.137 204.9 273.137C204.392 273.137 203.898 273.198 203.416 273.319C202.935 273.441 202.472 273.623 202.027 273.866V272.517C202.561 272.311 203.08 272.157 203.582 272.057C204.085 271.951 204.574 271.898 205.05 271.898C206.335 271.898 207.295 272.231 207.93 272.898C208.565 273.565 208.884 274.576 208.884 275.93Z" fill="#DCC6E0"/>
<path d="M217.049 273.478C216.885 273.383 216.705 273.314 216.509 273.272C216.319 273.224 216.107 273.201 215.874 273.201C215.049 273.201 214.414 273.471 213.97 274.01C213.531 274.544 213.311 275.314 213.311 276.319V281H211.843V272.113H213.311V273.494C213.618 272.954 214.017 272.555 214.509 272.296C215.001 272.031 215.599 271.899 216.302 271.899C216.403 271.899 216.514 271.907 216.635 271.923C216.757 271.934 216.892 271.952 217.04 271.979L217.049 273.478Z" fill="#DCC6E0"/>
<path d="M224.158 273.462V268.654H225.618V281H224.158V279.667C223.851 280.196 223.462 280.59 222.992 280.849C222.526 281.103 221.966 281.23 221.31 281.23C220.236 281.23 219.361 280.802 218.684 279.945C218.012 279.088 217.676 277.961 217.676 276.565C217.676 275.169 218.012 274.042 218.684 273.185C219.361 272.328 220.237 271.9 221.31 271.9C221.966 271.9 222.527 272.03 222.992 272.289C223.462 272.542 223.851 272.933 224.158 273.462ZM219.183 276.564C219.183 277.638 219.403 278.482 219.842 279.095C220.286 279.703 220.895 280.007 221.667 280.007C222.439 280.007 223.048 279.703 223.492 279.095C223.936 278.481 224.159 277.638 224.159 276.564C224.159 275.49 223.937 274.649 223.492 274.041C223.048 273.427 222.439 273.121 221.667 273.121C220.895 273.121 220.286 273.428 219.842 274.041C219.403 274.65 219.183 275.491 219.183 276.564Z" fill="#DCC6E0"/>
</svg>
