<svg _ngcontent-gae-c79="" xmlns="http://www.w3.org/2000/svg" width="495.9" height="209.4" viewBox="0 0 495.9 209.4"><path _ngcontent-gae-c79="" d="M234.1 175.4c-1.7 0-3.1-.4-4.3-1.3-1.2-.9-2-2-2.4-3.5l-16.8-68.3c-.1-.7-.2-1.4-.1-2 .1-1.1.6-2.3 1.4-3.6.9-1.3 2.3-2.2 4.4-2.9.7-.2 1.5-.3 2.2-.3 1.2 0 2.5.4 3.9 1.1 1.4.7 2.3 2 2.9 3.8l11.4 46.5 19.1-46.4c.8-1.8 2.2-3.2 4-4 1.1-.6 2.3-.8 3.6-.8.7 0 1.4.1 2.2.3 2 .6 3.3 1.7 4.1 3.3.5 1 .7 2.1.6 3.2-.1.7-.2 1.3-.5 2l-28.1 68.3c-1.5 2.7-4 4.4-7.6 4.6z"></path><path _ngcontent-gae-c79="" d="M368.9 189.6c-17.2 12.5-38.4 19.8-61.3 19.8-24.2 0-46.5-8.2-64.2-22 1.3-.6 2.5-1.2 3.7-2 3.8-2.5 6.7-5.6 8.8-9.6 14.5 10.6 32.4 16.8 51.8 16.8 16.4 0 31.8-4.5 44.9-12.3.7 1.1 1.5 2.1 2.4 3l.1.1c2.1 2 4.4 3.5 7.1 4.6 2.1.9 4.3 1.4 6.7 1.6M307.6 0c49.1 0 90.3 33.8 101.6 79.4-2-.2-4-.2-6.2-.2h-11.2c-11-36.1-44.5-62.5-84.2-62.5-39.8 0-73.4 26.4-84.3 62.7-1.1-.2-2.3-.2-3.5-.2-1.3 0-2.4.1-3.3.2-1 .1-2.1.3-3.3.7-.2.1-.5.1-.7.2-2.7.8-5.1 1.9-7.3 3.3l-.2.1C214.8 35.9 257 0 307.6 0z" fill-rule="evenodd" clip-rule="evenodd"></path><path _ngcontent-gae-c79="" d="M372.2 175.4c-2.1 0-3.8-.7-5.1-2-1.3-1.3-1.9-2.9-1.8-4.8l6-68.3c.2-1.9 1-3.5 2.6-4.8 1.6-1.3 3.4-2 5.5-2h22.4c4.9 0 9 .5 12.3 1.5 3.3 1 5.9 2.2 8 3.7 2 1.4 3.5 2.9 4.6 4.4 1.2 1.7 2 3.3 2.5 4.8s.7 2.9.8 4c.1 1.1.1 1.8.1 2.1l-.6 6.8c0 .3-.2 1.1-.4 2.2-.3 1.1-.8 2.4-1.5 4-.7 1.5-1.9 3.1-3.3 4.8-1.3 1.5-3.1 3-5.4 4.4-2.3 1.5-5.2 2.7-8.7 3.7l14.4 25.2c.6 1.1.9 2.3.8 3.5 0 .6-.3 1.4-.7 2.5-.4 1.1-1.6 2.2-3.4 3.3-1.3.7-2.6 1-3.9 1-1.3 0-2.5-.3-3.6-.9-1.1-.6-1.9-1.4-2.6-2.5l-17.6-30.8h-10.7l-2.4 27.3c-.2 1.9-1 3.5-2.6 4.8-1.8 1.4-3.6 2.1-5.7 2.1zm13.5-68.3l-1.8 20.5h15c6.8 0 11.4-1.4 13.9-4.1.4-.4.7-.9 1-1.3l.5-1 .7-7.1c0-.4-.1-.9-.3-1.7-.3-.7-.8-1.5-1.7-2.3-.9-.8-2.3-1.5-4.3-2.1-1.9-.6-4.6-.9-8-.9h-15zM455.3 136.3l-18.5-32.5c-.6-1.1-.9-2.3-.8-3.5 0-.6.3-1.4.7-2.5.4-1.1 1.6-2.2 3.4-3.3 1.3-.7 2.6-1 3.9-1 .6 0 1.5.1 2.8.4 1.2.3 2.4 1.3 3.4 2.9l13.9 24.3 18.2-24.3c1.3-1.6 2.9-2.7 4.8-3.1.6-.1 1.2-.2 1.8-.2 1.3 0 2.6.3 3.8 1 1.7 1 2.7 2.4 3 4.2.1.6.1 1.1.1 1.7-.1 1.2-.6 2.4-1.4 3.5l-24.2 32.5-2.8 32.3c-.2 1.9-1 3.5-2.6 4.8-1.6 1.3-3.4 2-5.5 2s-3.8-.7-5.1-2c-1.3-1.3-1.9-2.9-1.8-4.8l2.9-32.4zM55.8 165.8c-1.3 1.5-3.1 3-5.4 4.5-2.3 1.5-5.1 2.7-8.6 3.7-3.4 1-7.6 1.5-12.5 1.5H7c-2.1 0-3.8-.7-5.1-2-1.4-1.3-2-2.9-1.8-4.8l6-68.3c.2-1.9 1-3.5 2.6-4.8 1.6-1.3 3.4-2 5.5-2h22.4c4.9 0 9 .5 12.2 1.5 3.3 1 5.9 2.2 7.9 3.7 2 1.4 3.5 2.9 4.6 4.4 1.2 1.7 2 3.3 2.5 4.8s.8 2.9.8 4 .1 1.8 0 2.1l-3.6 41c0 .3-.2 1-.4 2.1s-.7 2.4-1.5 4c-.7 1.3-1.8 2.9-3.3 4.6zm-35.4-58.7l-4.8 54.6h15c3.4 0 6.1-.3 8.1-.9 2-.6 3.6-1.3 4.6-2.1 1.1-.8 1.8-1.6 2.1-2.3.4-.7.6-1.3.6-1.7l3.6-40.6c0-.4-.1-.9-.3-1.7-.2-.7-.8-1.5-1.7-2.3-.9-.8-2.3-1.5-4.3-2.1-1.9-.6-4.6-.9-8-.9H20.4zM75.8 175.4c-2.1 0-3.8-.7-5.1-2-1.3-1.3-1.9-2.9-1.8-4.8l6-68.3c.2-1.9 1-3.5 2.6-4.8 1.6-1.3 3.4-2 5.4-2h35.9c2.1 0 3.8.7 5.1 2 1.3 1.3 1.9 2.9 1.8 4.8-.2 1.9-1 3.5-2.6 4.8-1.6 1.3-3.4 2-5.5 2H89.3l-1.8 20.5h22.4c2.1 0 3.8.7 5.1 2 1.4 1.3 2 2.9 1.8 4.8s-1 3.5-2.6 4.8-3.4 2-5.5 2H86.3l-1.8 20.5h28.4c2.1 0 3.8.7 5.1 2 1.3 1.3 1.9 3 1.8 4.8-.2 1.9-1 3.5-2.6 4.8-1.6 1.3-3.4 2-5.5 2H75.8zM134.5 175.4c-2.1 0-3.8-.7-5.1-2-1.3-1.3-1.9-2.9-1.8-4.8l6-68.3c.2-1.9 1-3.5 2.6-4.8 1.6-1.3 3.4-2 5.4-2 2.1 0 3.8.7 5.1 2 1.4 1.3 2 2.9 1.8 4.8l-5.4 61.4h22.4c2.1 0 3.8.7 5.1 2 1.3 1.3 1.9 3 1.8 4.8-.2 1.9-1 3.5-2.6 4.8-1.6 1.3-3.4 2-5.5 2h-29.8zM187.4 175.4c-2.1 0-3.8-.7-5.1-2-1.4-1.3-2-2.9-1.8-4.8l6-68.3c.2-1.9 1-3.5 2.6-4.8 1.6-1.3 3.4-2 5.5-2s3.8.7 5.1 2c1.3 1.3 1.9 2.9 1.8 4.8l-6 68.3c-.2 1.9-1 3.5-2.6 4.8-1.6 1.3-3.5 2-5.5 2zM311.3 93.3c-1.6-.3-3 0-4.3.6-1.3.7-2.3 1.7-2.8 3L280 156c-4.6 11.1 8.5 17.9 13.8 4.8l15.6-38 12.8 52.3c2.2 9 15.8 6.3 13.8-2.2L317.8 99c-.7-3.2-3.1-5.1-6.5-5.7"></path></svg>