<svg width="200" height="27" viewBox="0 0 200 27" fill="none" xmlns="http://www.w3.org/2000/svg">
<g clip-path="url(#clip0_103_90)">
<path d="M180.717 13.7897C180.405 10.2443 178.261 8.37122 174.525 8.37122C172.441 8.37122 170.784 8.97383 169.578 10.169V8.35114H165.27V22.0102H169.578V16.7525C169.724 15.03 170.462 12.1375 173.767 12.1375C175.906 12.1375 176.378 13.0012 176.564 13.9403L176.649 14.3672H180.772L180.717 13.7897Z" fill="#284625"/>
<path d="M168.7 13.5787L169.081 12.253L169.669 12.0822L170.583 12.9058L168.7 13.5787Z" fill="#284625"/>
<path d="M31.7775 4.14292L42.7047 4.13287C48.4847 4.13287 50.6993 6.14156 50.7043 9.30524C50.7541 10.282 50.4537 11.2445 49.8572 12.0196C49.2607 12.7947 48.4072 13.3315 47.4502 13.5335V13.5888C49.926 14.1261 50.5888 15.9038 50.5888 18.1083V21.8847H46.9882V18.1083C46.9882 16.0293 45.9839 15.03 43.5032 15.035H34.9663V21.8947H31.7925L31.7775 4.14292ZM43.1517 12.5794C46.0291 12.5794 47.2946 11.4696 47.2896 9.82248C47.2845 8.17536 45.9688 7.07058 42.4084 7.0756H34.9411L35.0014 12.5995L43.1517 12.5794Z" fill="#284625"/>
<path d="M70.9519 8.38126H74.3114L74.2762 11.8965C75.0697 9.60153 77.2591 8.33606 80.8045 8.33606C86.1827 8.33606 89.0602 10.9976 89.0602 14.8994C89.0602 19.4642 85.8915 21.8897 80.9099 21.8897C77.0583 21.8897 75.1601 20.7849 74.1808 18.8766C74.2361 19.6952 74.1808 26.4394 74.1808 26.4394H70.9468L70.9519 8.38126ZM85.7509 14.9647C85.7509 12.6447 84.1188 10.9474 80.7291 10.9474C77.2491 10.9474 75.2504 12.8707 75.2053 15.3012V15.5623C75.2053 17.3551 77.0332 19.2282 80.7593 19.2282C84.0485 19.2282 85.7559 17.8321 85.7559 14.9547" fill="#284625"/>
<path d="M195.963 4.04248C195.963 4.04248 195.963 8.10003 195.963 10.0987C194.762 8.91857 192.914 8.36116 190.293 8.36116C185.321 8.36116 182.308 10.9524 182.308 15.2911C182.308 19.3085 185.407 21.8194 190.398 21.8194C193.346 21.8194 195.023 20.9104 195.973 19.8107L196.023 21.7641H199.995V4.04248H195.963ZM195.084 14.6634V14.8944C195.039 17.0186 193.246 18.4096 190.509 18.4096C187.898 18.4096 186.406 17.2546 186.406 15.2359C186.406 12.9008 187.702 11.8161 190.484 11.8161C193.497 11.8161 195.084 13.2523 195.084 14.6785" fill="#284625"/>
<path d="M107.615 15.1254C107.615 11.6956 110.126 8.32098 116.554 8.32098C122.982 8.32098 125.498 11.6956 125.498 15.1254C125.498 18.5552 123.017 21.8746 116.554 21.8746C110.091 21.8746 107.615 18.5804 107.615 15.1254ZM122.118 15.1254C122.118 12.9611 120.612 10.9574 116.554 10.9574C112.497 10.9574 110.99 12.9661 110.99 15.1254C110.99 17.2848 112.466 19.2382 116.554 19.2382C120.642 19.2382 122.118 17.2898 122.118 15.1254Z" fill="#284625"/>
<path d="M100.208 8.3913C97.2908 8.3913 95.5281 9.61158 94.5138 11.3139V8.37122H91.1392V21.8796H94.5138C94.5138 21.8796 94.5138 18.8666 94.5138 16.5014C94.574 13.634 96.1759 11.1984 99.415 11.1984C101.494 11.1984 102.543 11.9266 102.865 13.5185H106.089C105.813 10.3849 104.11 8.3913 100.203 8.3913" fill="#284625"/>
<path d="M65.433 18.279C64.7952 18.962 63.4745 19.4742 61.034 19.4742C57.0467 19.4742 55.7812 17.8673 55.5452 15.8887H68.9984V14.8341C68.9984 10.8168 66.3871 8.30591 60.823 8.30591C55.3343 8.30591 52.1455 11.0227 52.1455 15.1907C52.1455 18.4347 54.1542 21.8595 61.034 21.8595C65.8448 21.8595 68.1698 20.1823 68.8126 18.264L65.433 18.279ZM60.9536 10.7214C64.514 10.7214 65.91 12.037 65.91 13.7796V13.8599H55.6507C56.0976 11.8512 57.6594 10.7214 60.9536 10.7214Z" fill="#284625"/>
<path d="M140.568 16.1046C140.121 17.6112 138.559 18.4648 136.048 18.4648C133.096 18.4648 131.403 17.2596 131.403 15.1656C131.403 13.0715 133.096 11.8111 136.048 11.8111C138.112 11.8111 139.564 12.4036 140.252 13.5185H144.646L144.5 13.0816C143.496 10.0685 140.417 8.34106 136.043 8.34106C133.156 8.34106 130.901 9.04411 129.339 10.4301C128.673 11.0219 128.141 11.7502 127.781 12.5655C127.42 13.3809 127.239 14.2642 127.25 15.1555C127.25 20.1421 131.795 21.9198 136.043 21.9198C141.035 21.9198 144.269 19.7454 144.766 16.0946L140.568 16.1046Z" fill="#284625"/>
<path d="M154.543 8.30591C148.347 8.30591 146.961 10.6711 146.765 12.3685H151.073C151.45 11.8161 152.58 11.5801 154.468 11.5801C157.888 11.5801 158.566 12.6497 158.651 13.7746H151.857C147.302 13.7746 146.333 15.8787 146.333 17.6413C146.333 19.7353 148.06 21.97 152.906 21.97C155.759 21.97 157.687 21.4076 158.807 20.2224V20.2777C158.807 20.7045 158.807 21.1063 158.807 21.4277V21.9298H162.824V14.337C162.824 10.5054 159.811 8.31093 154.528 8.31093L154.543 8.30591ZM153.474 18.7812C152.193 18.7812 150.039 18.5954 150.039 17.3751C150.039 16.7826 150.21 16.3708 152.495 16.3708H158.772C158.385 17.6262 156.582 18.7561 153.474 18.7561" fill="#284625"/>
<path d="M12.7351 25.4652C10.2159 25.4662 7.75302 24.72 5.65798 23.321C3.56294 21.922 1.92987 19.9331 0.965362 17.6059C0.000851569 15.2787 -0.251769 12.7177 0.239457 10.2468C0.730683 7.77599 1.94368 5.50635 3.72502 3.72502C5.50635 1.94368 7.77599 0.730683 10.2468 0.239457C12.7177 -0.251769 15.2787 0.000851569 17.6059 0.965362C19.9331 1.92987 21.922 3.56294 23.321 5.65798C24.72 7.75302 25.4662 10.2159 25.4652 12.7351C25.4612 16.1101 24.1187 19.3457 21.7322 21.7322C19.3457 24.1187 16.1101 25.4612 12.7351 25.4652V25.4652ZM12.7351 1.21026C10.4507 1.21026 8.21767 1.88765 6.31829 3.15677C4.41891 4.4259 2.93852 6.22975 2.06433 8.34023C1.19015 10.4507 0.961419 12.773 1.40708 15.0135C1.85273 17.254 2.95276 19.312 4.56805 20.9273C6.18334 22.5426 8.24134 23.6426 10.4818 24.0882C12.7223 24.5339 15.0446 24.3052 17.1551 23.431C19.2656 22.5568 21.0694 21.0764 22.3385 19.177C23.6077 17.2776 24.2851 15.0446 24.2851 12.7602C24.2784 9.70132 23.0586 6.76999 20.8933 4.60939C18.728 2.44878 15.794 1.23536 12.7351 1.23536" fill="#284625"/>
<path d="M15.959 14.1512C17.6605 12.83 19.0037 11.1035 19.8659 9.1295C19.8677 9.12301 19.8678 9.11619 19.8663 9.10965C19.8647 9.1031 19.8615 9.09706 19.857 9.09206C19.8525 9.08706 19.8469 9.08328 19.8405 9.08104C19.8342 9.07881 19.8274 9.0782 19.8207 9.07928C17.5462 9.73516 15.4927 10.9971 13.88 12.7301C13.8749 12.7356 13.868 12.7393 13.8606 12.7406C13.8531 12.742 13.8455 12.7408 13.8387 12.7375C13.8319 12.7341 13.8264 12.7286 13.823 12.7218C13.8196 12.7151 13.8185 12.7074 13.8198 12.6999C14.3082 9.71387 13.9516 6.65073 12.7903 3.85669C12.7869 3.85041 12.7818 3.84518 12.7756 3.84153C12.7694 3.83789 12.7624 3.83597 12.7552 3.83597C12.748 3.83597 12.741 3.83789 12.7348 3.84153C12.7286 3.84518 12.7235 3.85041 12.72 3.85669C11.5751 6.63754 11.2273 9.68232 11.7157 12.6497C11.717 12.6572 11.7159 12.6649 11.7125 12.6716C11.7091 12.6784 11.7036 12.6839 11.6968 12.6872C11.69 12.6906 11.6823 12.6917 11.6749 12.6904C11.6674 12.6891 11.6606 12.6854 11.6554 12.6799C10.0583 10.8923 8.00726 9.57005 5.71975 8.8533C5.71277 8.85115 5.70534 8.85095 5.69825 8.85271C5.69116 8.85447 5.68469 8.85813 5.67952 8.86329C5.67436 8.86846 5.6707 8.87493 5.66894 8.88202C5.66718 8.88911 5.66739 8.89654 5.66954 8.90352C6.54129 10.9641 7.92395 12.7685 9.68691 14.1462C9.69211 14.1493 9.69641 14.1537 9.6994 14.159C9.70239 14.1643 9.70396 14.1703 9.70396 14.1763C9.70396 14.1824 9.70239 14.1884 9.6994 14.1936C9.69641 14.1989 9.69211 14.2033 9.68691 14.2065C7.84475 14.3705 6.02512 14.729 4.25843 15.2761C4.25074 15.2789 4.24411 15.2841 4.23943 15.2908C4.23475 15.2975 4.23224 15.3055 4.23224 15.3137C4.23224 15.3219 4.23475 15.33 4.23943 15.3367C4.24411 15.3434 4.25074 15.3486 4.25843 15.3514C9.3153 16.9684 16.2453 16.9835 21.2971 15.3514C21.3048 15.3486 21.3114 15.3434 21.3161 15.3367C21.3208 15.33 21.3233 15.3219 21.3233 15.3137C21.3233 15.3055 21.3208 15.2975 21.3161 15.2908C21.3114 15.2841 21.3048 15.2789 21.2971 15.2761C19.5668 14.7352 17.7843 14.3784 15.9791 14.2115C15.9739 14.2084 15.9696 14.2039 15.9666 14.1987C15.9636 14.1934 15.9621 14.1874 15.9621 14.1813C15.9621 14.1753 15.9636 14.1693 15.9666 14.164C15.9696 14.1588 15.9739 14.1543 15.9791 14.1512" fill="#284625"/>
<path d="M18.6004 18.1535C14.6859 18.9747 10.6436 18.9747 6.72908 18.1535L5.99591 18.0079L6.55332 18.51C8.21217 20.0424 10.3767 20.911 12.6346 20.9506C14.9072 20.8947 17.0851 20.0292 18.7762 18.51L19.3587 18.0079L18.6004 18.1535Z" fill="#284625"/>
<path d="M12.6447 21.0912C10.3505 21.0461 8.15192 20.1638 6.46293 18.6105L5.90552 18.1083C5.88262 18.0859 5.86749 18.0567 5.86232 18.025C5.85715 17.9934 5.86222 17.9609 5.87679 17.9323C5.89135 17.9038 5.91466 17.8806 5.94331 17.8662C5.97196 17.8518 6.00446 17.8469 6.03608 17.8522L6.76925 17.9979C10.6704 18.816 14.6986 18.8177 18.6004 18.0029L19.3587 17.8422C19.3913 17.8354 19.4253 17.8395 19.4553 17.8541C19.4853 17.8686 19.5096 17.8927 19.5244 17.9225C19.5386 17.9525 19.5428 17.9862 19.5364 18.0187C19.5301 18.0512 19.5136 18.0808 19.4893 18.1033L18.9017 18.6055C17.1827 20.1452 14.9718 21.0228 12.6648 21.0812L12.6447 21.0912ZM6.5483 18.264L6.68891 18.3845C8.32144 19.8905 10.4491 20.7462 12.6698 20.7899C14.9002 20.7283 17.036 19.8757 18.6958 18.3845L18.8415 18.259L18.6506 18.2992C14.7161 19.1225 10.6536 19.1225 6.71904 18.2992L6.5483 18.264Z" fill="#284625"/>
</g>
<defs>
<clipPath id="clip0_103_90">
<rect width="200" height="26.3992" fill="white"/>
</clipPath>
</defs>
</svg>
